<?xml version="1.0" encoding="utf-8"?>
<!DOCTYPE svg PUBLIC "-//W3C//DTD SVG 1.1//EN" "http://www.w3.org/Graphics/SVG/1.1/DTD/svg11.dtd">

<?xml-stylesheet href="/css/view/header.css" type="text/css"?>
<?xml-stylesheet href="/css/view/userDevices.css" type="text/css"?>

<svg xmlns="http://www.w3.org/2000/svg" version="1.1">

    <svg id="search" width="50" height="50" viewBox="0 0 310.42 310.42">
        <g>
            <path d="M273.587,214.965c49.11-49.111,49.109-129.021,0-178.132c-49.111-49.111-129.02-49.111-178.13,0
			C53.793,78.497,47.483,140.462,76.51,188.85c0,0,2.085,3.498-0.731,6.312c-16.065,16.064-64.263,64.263-64.263,64.263
			c-12.791,12.79-15.836,30.675-4.493,42.02l1.953,1.951c11.343,11.345,29.229,8.301,42.019-4.49c0,0,48.096-48.097,64.128-64.128
			c2.951-2.951,6.448-0.866,6.448-0.866C169.958,262.938,231.923,256.629,273.587,214.965z M118.711,191.71
			c-36.288-36.288-36.287-95.332,0.001-131.62c36.288-36.287,95.332-36.288,131.619,0c36.288,36.287,36.288,95.332,0,131.62
			C214.043,227.996,155,227.996,118.711,191.71z"/>
            <g>
                <path d="M126.75,118.424c-1.689,0-3.406-0.332-5.061-1.031c-6.611-2.798-9.704-10.426-6.906-17.038
				c17.586-41.559,65.703-61.062,107.261-43.476c6.611,2.798,9.704,10.426,6.906,17.038c-2.799,6.612-10.425,9.703-17.039,6.906
				c-28.354-11.998-61.186,1.309-73.183,29.663C136.629,115.445,131.815,118.424,126.75,118.424z"/>
            </g>
        </g>
    </svg>

    <svg id="popular" width="50" height="50" viewBox="0 0 566.848 566.848">
        <g>
            <g>
                <path d="M510.124,195.329c-4.064-12.505-14.108-21.868-26.87-25.041l-126.258-31.4L288.118,28.514
                    C281.157,17.357,269.15,10.697,256,10.697s-25.157,6.66-32.119,17.816l-68.878,110.375l-126.258,31.4
                    c-12.761,3.174-22.805,12.535-26.868,25.041c-4.064,12.505-1.44,25.984,7.019,36.052l83.688,99.615l-9.154,129.78
                    c-0.926,13.117,4.874,25.564,15.511,33.292c10.847,7.883,24.638,9.25,36.457,4.465L256,449.724l120.6,48.81
                    c11.762,4.761,25.56,3.453,36.456-4.465c10.64-7.729,16.438-20.176,15.512-33.292l-9.154-129.781l83.689-99.615
                    C511.564,221.313,514.188,207.836,510.124,195.329z M477.476,209.85L389.43,314.65c-2.795,3.326-4.186,7.609-3.881,11.943
                    l9.63,136.539c0.23,3.254-3.036,5.583-6.021,4.374l-126.879-51.35c-2.014-0.815-4.146-1.223-6.278-1.223s-4.266,0.407-6.278,1.223
                    l-126.88,51.35c-2.986,1.207-6.25-1.119-6.021-4.375l9.63-136.538c0.306-4.334-1.086-8.617-3.881-11.943L34.525,209.85
                    c-0.98-1.166-1.284-2.728-0.813-4.177c0.471-1.449,1.635-2.534,3.114-2.902l132.831-33.034c4.216-1.049,7.859-3.695,10.159-7.381
                    l72.464-116.121c0.807-1.293,2.198-2.065,3.721-2.065s2.914,0.772,3.721,2.064l72.464,116.122
                    c2.301,3.685,5.944,6.332,10.159,7.381l132.831,33.034c1.479,0.368,2.643,1.453,3.114,2.902
                    C478.761,207.123,478.457,208.684,477.476,209.85z"/>
            </g>
        </g>
        <g>
            <g>
                <path d="M264.86,107.197c-7.84-4.893-18.166-2.504-23.059,5.339L196.2,185.61l-83.589,20.788
                    c-8.971,2.232-14.433,11.31-12.203,20.281c2.232,8.971,11.313,14.433,20.281,12.203l90.163-22.422
                    c4.216-1.049,7.859-3.695,10.159-7.382l49.187-78.821C275.093,122.415,272.702,112.091,264.86,107.197z"/>
            </g>
        </g>
    </svg>

    <svg id="list" width="50" height="50" viewBox="0 0 490.1 490.1">
        <g>
            <path d="M32.1,141.15h76.7c17.7,0,32.1-14.4,32.1-32.1v-76.7c0-17.7-14.4-32.1-32.1-32.1H32.1C14.4,0.25,0,14.65,0,32.35v76.7
			C0,126.75,14.4,141.15,32.1,141.15z M24.5,32.35c0-4.2,3.4-7.6,7.6-7.6h76.7c4.2,0,7.6,3.4,7.6,7.6v76.7c0,4.2-3.4,7.6-7.6,7.6
			H32.1c-4.2,0-7.6-3.4-7.6-7.6V32.35z"/>
            <path d="M0,283.45c0,17.7,14.4,32.1,32.1,32.1h76.7c17.7,0,32.1-14.4,32.1-32.1v-76.7c0-17.7-14.4-32.1-32.1-32.1H32.1
			c-17.7,0-32.1,14.4-32.1,32.1V283.45z M24.5,206.65c0-4.2,3.4-7.6,7.6-7.6h76.7c4.2,0,7.6,3.4,7.6,7.6v76.7c0,4.2-3.4,7.6-7.6,7.6
			H32.1c-4.2,0-7.6-3.4-7.6-7.6V206.65z"/>
            <path d="M0,457.75c0,17.7,14.4,32.1,32.1,32.1h76.7c17.7,0,32.1-14.4,32.1-32.1v-76.7c0-17.7-14.4-32.1-32.1-32.1H32.1
			c-17.7,0-32.1,14.4-32.1,32.1V457.75z M24.5,381.05c0-4.2,3.4-7.6,7.6-7.6h76.7c4.2,0,7.6,3.4,7.6,7.6v76.7c0,4.2-3.4,7.6-7.6,7.6
			H32.1c-4.2,0-7.6-3.4-7.6-7.6V381.05z"/>
            <path d="M477.8,31.75H202.3c-6.8,0-12.3,5.5-12.3,12.3c0,6.8,5.5,12.3,12.3,12.3h275.5c6.8,0,12.3-5.5,12.3-12.3
			C490.1,37.25,484.6,31.75,477.8,31.75z"/>
            <path d="M477.8,85.15H202.3c-6.8,0-12.3,5.5-12.3,12.3s5.5,12.3,12.3,12.3h275.5c6.8,0,12.3-5.5,12.3-12.3
			C490,90.65,484.6,85.15,477.8,85.15z"/>
            <path d="M477.8,206.05H202.3c-6.8,0-12.3,5.5-12.3,12.3s5.5,12.3,12.3,12.3h275.5c6.8,0,12.3-5.5,12.3-12.3
			C490,211.55,484.6,206.05,477.8,206.05z"/>
            <path d="M477.8,259.55H202.3c-6.8,0-12.3,5.5-12.3,12.3s5.5,12.3,12.3,12.3h275.5c6.8,0,12.3-5.5,12.3-12.3
			C490,265.05,484.6,259.55,477.8,259.55z"/>
            <path d="M477.8,380.45H202.3c-6.8,0-12.3,5.5-12.3,12.3s5.5,12.3,12.3,12.3h275.5c6.8,0,12.3-5.5,12.3-12.3
			C490,385.95,484.6,380.45,477.8,380.45z"/>
            <path d="M490,446.15c0-6.8-5.5-12.3-12.3-12.3H202.3c-6.8,0-12.3,5.5-12.3,12.3s5.5,12.3,12.3,12.3h275.5
			C484.6,458.35,490,452.85,490,446.15z"/>
        </g>
    </svg>

    <svg id="form" width="50" height="50" viewBox="0 0 434.168 434.168">
        <g>
            <path d="M332.318,230.196V34.967H40.93v364.235h134.038c9.616,0,17.483,7.867,17.483,17.483s-7.867,17.483-17.483,17.483H23.446
		c-9.616,0-17.483-7.867-17.483-17.483V17.483C5.963,7.867,13.831,0,23.446,0h326.354c9.616,0,17.483,7.867,17.483,17.483v212.713
		c0,9.616-7.867,17.483-17.483,17.483S332.318,239.812,332.318,230.196z M422.357,272.739c-7.285-6.411-18.357-5.828-24.768,1.457
		l-95.867,106.648l-48.079-46.331c-6.993-6.702-18.066-6.411-24.768,0.583s-6.411,18.066,0.583,24.768l61.191,58.86
		c3.205,3.205,7.576,4.954,12.238,4.954c0.291,0,0.291,0,0.583,0c4.662-0.291,9.324-2.331,12.238-5.828l107.814-120.052
		C430.224,290.222,429.641,279.15,422.357,272.739z M268.212,101.986H110.863c-9.616,0-17.483,7.867-17.483,17.483
		s7.867,17.483,17.483,17.483h157.349c9.616,0,17.483-7.867,17.483-17.483S277.828,101.986,268.212,101.986z M285.696,215.627
		c0-9.616-7.867-17.483-17.483-17.483H110.863c-9.616,0-17.483,7.867-17.483,17.483c0,9.616,7.867,17.483,17.483,17.483h157.349
		C277.828,233.11,285.696,225.243,285.696,215.627z M110.863,291.388c-9.616,0-17.483,7.867-17.483,17.483
		c0,9.616,7.867,17.483,17.483,17.483h46.622c9.616,0,17.483-7.867,17.483-17.483c0-9.616-7.867-17.483-17.483-17.483H110.863z"/>
        </g>
    </svg>

</svg>
